<svg width="47" height="40" viewBox="0 0 47 40" fill="none" xmlns="http://www.w3.org/2000/svg">
<path d="M42.3312 13.2602C39.4355 10.5705 35.3102 9.23047 29.9643 9.23047H17.398C15.9037 9.23047 14.5116 9.32585 13.2123 9.51661C9.57877 10.046 6.70633 11.3097 4.6042 13.3222C1.74567 16.0501 0.316406 19.8652 0.316406 24.7725C0.316406 29.6797 1.76423 33.3327 4.66452 35.9747C6.83162 37.9824 9.68086 39.2367 13.2123 39.7422C14.4049 39.9139 15.681 39.9997 17.0314 39.9997H29.5977C35.273 39.9997 39.5376 38.6358 42.3961 35.9079C45.2547 33.1801 46.6839 29.365 46.6839 24.4529C46.6839 19.5409 45.2361 15.8927 42.3358 13.2507L42.3312 13.2602ZM13.2123 34.8492C8.00566 33.7762 5.39771 30.376 5.39771 24.6485C5.39771 21.2101 6.35829 18.5871 8.2748 16.7797C9.53701 15.6209 11.189 14.8483 13.2076 14.4525V34.8445L13.2123 34.8492ZM18.2936 14.1377V14.0137H24.7252C25.2218 14.0137 25.6812 14.0376 26.1081 14.0853C27.2914 14.214 28.1963 14.5288 28.8274 15.02C29.723 15.6495 30.1732 16.6986 30.1732 18.1675C30.1732 20.7284 28.3355 22.0065 24.6603 22.0065H18.2936V14.1377ZM30.5398 34.277C29.9411 34.6776 29.1337 34.9494 28.1221 35.0972C27.5466 35.1783 26.9016 35.2212 26.1916 35.2212H18.2936V26.7897H25.5791C29.8251 26.7897 31.9458 28.1536 31.9458 30.8815C31.9458 32.4743 31.4771 33.6093 30.5351 34.2817L30.5398 34.277ZM38.7209 32.4505C38.1594 32.9655 37.5097 33.3995 36.7951 33.7667C36.99 33.037 37.0967 32.2645 37.0967 31.4442C37.0967 29.5128 36.5445 27.9009 35.4447 26.599C34.3821 25.297 32.9157 24.4386 31.0363 24.019C32.0154 23.5564 32.7533 23.1367 33.2405 22.76C34.7115 21.5868 35.4447 19.7794 35.4447 17.3472C35.4447 16.4125 35.2916 15.5255 34.9992 14.6909C39.3984 16.0214 41.598 19.3216 41.598 24.5865C41.598 28.0249 40.6374 30.6478 38.7209 32.4552V32.4505Z" fill="#CBCAC8"/>
<ellipse cx="15.6466" cy="3.46154" rx="3.36538" ry="3.46154" fill="#CBCAC8"/>
</svg>
