<svg xmlns="http://www.w3.org/2000/svg" width="180" height="180" viewBox="0 0 180 180" fill="none">
  <rect width="180" height="180" fill="#C5C6C5"/>
  <path d="M150.047 69.4387C140.74 61.0334 127.48 56.8457 110.297 56.8457H69.905C65.1021 56.8457 60.6274 57.1438 56.451 57.7399C44.7719 59.3941 35.539 63.3434 28.7822 69.6324C19.5941 78.1569 15 90.0793 15 105.414C15 120.75 19.6537 132.165 28.9761 140.421C35.9418 146.696 45.1 150.615 56.451 152.195C60.2843 152.731 64.3861 153 68.7266 153H109.119C127.361 153 141.068 148.737 150.256 140.213C159.444 131.688 164.038 119.766 164.038 104.416C164.038 89.0659 159.385 77.6651 150.062 69.4089L150.047 69.4387ZM56.451 136.904C39.7154 133.551 31.3328 122.925 31.3328 105.027C31.3328 94.2819 34.4203 86.0853 40.5806 80.4371C44.6377 76.8157 49.9477 74.4014 56.436 73.1644V136.889L56.451 136.904ZM72.7837 72.1808V71.7934H93.457C95.053 71.7934 96.5297 71.8679 97.9019 72.0169C101.705 72.4193 104.614 73.4029 106.643 74.9379C109.521 76.9051 110.968 80.1837 110.968 84.7738C110.968 92.7767 105.061 96.7707 93.2482 96.7707H72.7837V72.1808ZM112.146 135.116C110.222 136.368 107.627 137.217 104.375 137.679C102.526 137.933 100.452 138.067 98.1704 138.067H72.7837V111.718H96.2015C109.849 111.718 116.666 115.981 116.666 124.505C116.666 129.483 115.159 133.03 112.132 135.131L112.146 135.116ZM138.443 129.408C136.638 131.018 134.55 132.374 132.253 133.521C132.879 131.241 133.222 128.827 133.222 126.264C133.222 120.228 131.447 115.191 127.912 111.122C124.497 107.054 119.783 104.371 113.742 103.06C116.89 101.614 119.261 100.303 120.827 99.1254C125.556 95.4593 127.912 89.811 127.912 82.2105C127.912 79.2896 127.42 76.5176 126.481 73.9096C140.621 78.0675 147.691 88.3804 147.691 104.833C147.691 115.578 144.603 123.775 138.443 129.423V129.408Z" fill="#161616"/>
  <circle cx="64.2787" cy="38.8173" r="10.8173" fill="#161616"/>
</svg>