<svg width="292" height="302" viewBox="0 0 292 302" fill="none" xmlns="http://www.w3.org/2000/svg">
<g style="mix-blend-mode:color-burn">
<path d="M345.658 109.094C321.835 86.9653 287.896 75.9404 243.915 75.9404H140.531C128.238 75.9404 116.785 76.7251 106.095 78.2945C76.2021 82.6495 52.5703 93.0466 35.2759 109.604C11.7586 132.046 0 163.433 0 203.805C0 244.178 11.9113 274.231 35.7722 295.967C53.6011 312.485 77.042 322.803 106.095 326.962C115.907 328.375 126.405 329.081 137.515 329.081H240.899C287.59 329.081 322.675 317.86 346.193 295.418C369.71 272.976 381.469 241.588 381.469 201.177C381.469 160.765 369.557 130.751 345.696 109.015L345.658 109.094ZM106.095 286.708C63.26 277.88 41.8042 249.906 41.8042 202.785C41.8042 174.497 49.707 152.918 65.4742 138.049C75.8585 128.515 89.4496 122.159 106.057 118.902V286.668L106.095 286.708ZM147.899 116.313V115.293H200.813C204.898 115.293 208.678 115.489 212.19 115.881C221.925 116.94 229.37 119.53 234.562 123.571C241.93 128.75 245.633 137.382 245.633 149.466C245.633 170.535 230.515 181.049 200.279 181.049H147.899V116.313ZM248.649 282C243.725 285.295 237.082 287.532 228.759 288.748C224.025 289.415 218.718 289.768 212.877 289.768H147.899V220.402H207.838C242.77 220.402 260.217 231.623 260.217 254.065C260.217 267.169 256.361 276.507 248.611 282.039L248.649 282ZM315.956 266.973C311.337 271.21 305.992 274.78 300.113 277.802C301.716 271.799 302.594 265.443 302.594 258.694C302.594 242.804 298.051 229.543 289.003 218.832C280.26 208.121 268.196 201.059 252.734 197.606C260.79 193.801 266.86 190.348 270.869 187.248C282.971 177.597 289.003 162.727 289.003 142.717C289.003 135.027 287.743 127.73 285.338 120.864C321.53 131.81 339.626 158.96 339.626 202.275C339.626 230.563 331.723 252.142 315.956 267.012V266.973Z" fill="#CBCAC8"/>
<ellipse cx="126.123" cy="28.4783" rx="27.6872" ry="28.4783" fill="#CBCAC8"/>
</g>
</svg>
