<svg width="187" height="31" viewBox="0 0 187 31" fill="none" xmlns="http://www.w3.org/2000/svg">
<g clip-path="url(#clip0_882_1053)">
<path d="M172.221 6.00781C169.433 6.00781 167.087 6.99978 165.177 8.98149C163.267 10.9632 162.313 13.3694 162.313 16.1912C162.313 19.0129 163.269 21.4147 165.177 23.4008C167.087 25.3468 169.433 26.3187 172.221 26.3187C175.008 26.3187 177.355 25.3468 179.265 23.4008C181.175 21.4191 182.128 19.0129 182.128 16.1912C182.128 13.3694 181.173 10.9677 179.265 8.98149C177.355 6.99978 175.008 6.00781 172.221 6.00781ZM172.221 30.6597C168.02 30.6597 164.507 29.2857 161.683 26.5421C158.857 23.7584 157.442 20.3088 157.442 16.1912C157.442 12.0736 158.857 8.63967 161.683 5.89609C164.507 3.11231 168.02 1.72266 172.221 1.72266C176.422 1.72266 179.933 3.11455 182.759 5.89609C185.584 8.63967 187 12.0736 187 16.1912C187 20.3088 185.568 23.7427 182.703 26.4863C179.839 29.2701 176.343 30.6597 172.221 30.6597Z" fill="#3B3B3B"/>
<path d="M110.056 26.1998C112.231 26.1998 113.949 25.4535 115.213 23.9678C116.51 22.4799 117.161 20.4602 117.161 17.9043V2.40137H121.912V18.0764C121.912 22.042 120.823 25.1341 118.648 27.3437C116.474 29.5556 113.608 30.6592 110.058 30.6592C106.508 30.6592 103.643 29.5533 101.469 27.3437C99.2944 25.1319 98.2051 22.042 98.2051 18.0764V2.40137H102.9V17.902C102.9 20.4937 103.547 22.5134 104.849 23.9656C106.108 25.4514 107.848 26.1975 110.06 26.1975H110.052L110.056 26.1998Z" fill="#3B3B3B"/>
<path d="M139.681 6.57981C137.506 6.57981 135.788 7.32603 134.524 8.81176C133.227 10.2997 132.576 12.3194 132.576 14.8753V30.376H127.822V14.701C127.822 10.7354 128.912 7.64775 131.086 5.43368C133.261 3.22185 136.126 2.11816 139.676 2.11816C143.225 2.11816 146.091 3.22408 148.265 5.43368C150.44 7.64552 151.529 10.7354 151.529 14.701V30.376H146.834V14.8753C146.834 12.2837 146.188 10.264 144.886 8.81176C143.626 7.32603 141.885 6.57981 139.674 6.57981H139.683H139.681Z" fill="#3B3B3B"/>
<path d="M86.2674 20.1931L93.5978 30.3765H87.5827L80.8809 20.9393H74.6958V30.3765H69.9424V2.40234H80.3664C84.6031 2.40234 87.6409 3.12621 89.4729 4.57396C91.3429 5.9882 92.2802 8.29386 92.2802 11.4977C92.2802 16.109 90.276 19.009 86.2651 20.1931H86.2674ZM80.5387 16.7033C83.1737 16.7033 84.9879 16.3056 85.9811 15.5035C86.9743 14.7014 87.4686 13.3498 87.4686 11.4418C87.4686 9.53383 86.9743 8.37206 85.9811 7.72191C84.9879 7.03602 83.2117 6.68973 80.655 6.68973H74.7002V16.6989H80.5431L80.5387 16.7033Z" fill="#3B3B3B"/>
<path d="M41.6758 30.3742V2.40234H52.5562C56.4887 2.40234 59.1617 3.24239 60.5778 4.92026C61.8372 6.33449 62.4657 7.94979 62.4657 9.78405C62.4657 11.9959 61.779 13.638 60.4033 14.7037C59.9425 15.0455 59.2579 15.4276 58.3408 15.8476C60.099 16.2296 61.4703 17.0094 62.4635 18.1935C63.4969 19.3776 64.0092 20.841 64.0092 22.597C64.0092 24.8089 63.2061 26.6588 61.6045 28.1445C60.0387 29.6325 57.4818 30.3765 53.9318 30.3765H41.6758V30.3719V30.3742ZM46.4336 14.0156H52.3884C55.8265 14.0156 57.5444 12.8538 57.5444 10.5258C57.5444 9.18976 57.1239 8.238 56.2851 7.66382C55.4821 7.05166 54.207 6.75004 52.4487 6.75004H46.4382V14.0156H46.4336ZM46.4336 26.0265H53.82C55.652 26.0265 57.0099 25.7405 57.8867 25.1686C58.7636 24.5564 59.2065 23.531 59.2065 22.0787C59.2065 19.5988 57.2224 18.3588 53.2518 18.3588H46.4382V26.022L46.4336 26.0265Z" fill="#3B3B3B"/>
<path d="M34.5024 30.3736H30.0352V9.09533H34.5024V30.3759V30.3736ZM29.4648 2.80389C29.4648 2.04203 29.7333 1.39412 30.2679 0.857923C30.8406 0.285974 31.5273 0 32.3304 0C33.1335 0 33.7419 0.285974 34.2787 0.857923C34.8514 1.39189 35.1378 2.04203 35.1378 2.80389C35.1378 3.60596 34.8514 4.29185 34.2787 4.8638C33.7441 5.39776 33.0932 5.66587 32.3304 5.66587C31.5273 5.66587 30.8585 5.3799 30.3261 4.80794C29.7534 4.27398 29.4671 3.60819 29.4671 2.80612L29.4648 2.80389Z" fill="#3B3B3B"/>
<path d="M20.054 6.06541C17.3406 3.62569 13.4864 2.40137 8.48241 2.40137H0V6.74907H8.31464C15.6853 6.74907 19.3695 9.95287 19.3695 16.3605C19.3695 19.4861 18.4702 21.8699 16.6785 23.5076C14.8867 25.1073 12.2695 25.9093 8.83137 25.9093H0V30.3688H8.14239C13.4506 30.3688 17.439 29.1288 20.1122 26.6489C22.7853 24.1689 24.123 20.7014 24.123 16.2376C24.123 11.7738 22.7697 8.45598 20.0562 6.05424V6.06318L20.054 6.06541Z" fill="#3B3B3B"/>
</g>
<defs>
<clipPath id="clip0_882_1053">
<rect width="187" height="31" fill="white"/>
</clipPath>
</defs>
</svg>
