<svg width="119" height="20" viewBox="0 0 119 20" fill="#3B3B3B" xmlns="http://www.w3.org/2000/svg">
<g clip-path="url(#clip0_2034_3532)">
<path d="M109.595 3.87594C107.822 3.87594 106.328 4.51592 105.113 5.79445C103.897 7.07298 103.29 8.62538 103.29 10.4458C103.29 12.2663 103.898 13.8158 105.113 15.0972C106.328 16.3527 107.822 16.9797 109.595 16.9797C111.369 16.9797 112.862 16.3527 114.078 15.0972C115.294 13.8187 115.9 12.2663 115.9 10.4458C115.9 8.62538 115.292 7.07585 114.078 5.79445C112.862 4.51592 111.369 3.87594 109.595 3.87594ZM109.595 19.7804C106.922 19.7804 104.687 18.8939 102.889 17.1238C101.091 15.3279 100.19 13.1024 100.19 10.4458C100.19 7.78938 101.091 5.57392 102.889 3.80387C104.687 2.00788 106.922 1.11133 109.595 1.11133C112.269 1.11133 114.503 2.00932 116.301 3.80387C118.099 5.57392 119 7.78938 119 10.4458C119 13.1024 118.089 15.3178 116.266 17.0878C114.443 18.8838 112.219 19.7804 109.595 19.7804Z" fill="#3B3B3B"/>
<path d="M70.0357 16.9036C71.4197 16.9036 72.513 16.4222 73.3171 15.4636C74.1429 14.5037 74.5571 13.2006 74.5571 11.5517V1.5498H77.5801V11.6627C77.5801 14.2212 76.8871 16.2161 75.5031 17.6416C74.1199 19.0686 72.2961 19.7806 70.037 19.7806C67.778 19.7806 65.9549 19.0672 64.5711 17.6416C63.1874 16.2146 62.4941 14.2212 62.4941 11.6627V1.5498H65.4821V11.5502C65.4821 13.2223 65.8937 14.5253 66.7221 15.4622C67.5236 16.4208 68.6307 16.9022 70.0383 16.9022H70.0331L70.0357 16.9036Z" fill="#3B3B3B"/>
<path d="M88.8881 4.24469C87.5042 4.24469 86.4108 4.72612 85.6067 5.68466C84.781 6.64463 84.3668 7.94766 84.3668 9.5966V19.5971H81.3418V9.4842C81.3418 6.92573 82.0354 4.93368 83.4187 3.50525C84.8027 2.07826 86.6258 1.36621 88.8848 1.36621C91.1438 1.36621 92.9676 2.0797 94.3509 3.50525C95.7349 4.93224 96.4278 6.92573 96.4278 9.4842V19.5971H93.4403V9.5966C93.4403 7.9246 93.0288 6.62156 92.2004 5.68466C91.3989 4.72612 90.2911 4.24469 88.8835 4.24469H88.8894H88.8881Z" fill="#3B3B3B"/>
<path d="M54.8974 13.0277L59.5622 19.5976H55.7344L51.4696 13.5091H47.5337V19.5976H44.5088V1.5498H51.1423C53.8383 1.5498 55.7714 2.01682 56.9373 2.95084C58.1273 3.86326 58.7238 5.35078 58.7238 7.41777C58.7238 10.3928 57.4484 12.2638 54.896 13.0277H54.8974ZM51.2519 10.7762C52.9287 10.7762 54.0832 10.5196 54.7152 10.0022C55.3473 9.4847 55.6618 8.6127 55.6618 7.3817C55.6618 6.15076 55.3473 5.40123 54.7152 4.98178C54.0832 4.53927 52.9529 4.31586 51.3259 4.31586H47.5365V10.7734H51.2547L51.2519 10.7762Z" fill="#3B3B3B"/>
<path d="M26.5215 19.5962V1.5498H33.4454C35.9479 1.5498 37.6489 2.09177 38.55 3.17426C39.3515 4.08667 39.7515 5.1288 39.7515 6.3122C39.7515 7.73917 39.3144 8.79864 38.439 9.48617C38.1457 9.70671 37.7101 9.95317 37.1265 10.2242C38.2454 10.4706 39.118 10.9737 39.75 11.7376C40.4077 12.5016 40.7336 13.4457 40.7336 14.5786C40.7336 16.0056 40.2226 17.1991 39.2034 18.1576C38.207 19.1176 36.5799 19.5976 34.3208 19.5976H26.5215V19.5947V19.5962ZM29.5492 9.04224H33.3386C35.5265 9.04224 36.6197 8.29271 36.6197 6.79077C36.6197 5.92878 36.3521 5.31474 35.8183 4.9443C35.3073 4.54936 34.4959 4.35477 33.377 4.35477H29.5521V9.04224H29.5492ZM29.5492 16.7912H34.2496C35.4155 16.7912 36.2796 16.6067 36.8375 16.2377C37.3955 15.8428 37.6774 15.1812 37.6774 14.2442C37.6774 12.6443 36.4148 11.8443 33.888 11.8443H29.5521V16.7883L29.5492 16.7912Z" fill="#3B3B3B"/>
<path d="M21.9557 19.5959H19.113V5.86795H21.9557V19.5973V19.5959ZM18.75 1.80896C18.75 1.31744 18.9208 0.899433 19.261 0.553499C19.6255 0.184499 20.0625 0 20.5735 0C21.0846 0 21.4717 0.184499 21.8134 0.553499C22.1778 0.897993 22.36 1.31744 22.36 1.80896C22.36 2.32643 22.1778 2.76893 21.8134 3.13793C21.4732 3.48243 21.0589 3.6554 20.5735 3.6554C20.0625 3.6554 19.6368 3.4709 19.2981 3.1019C18.9336 2.75741 18.7514 2.32787 18.7514 1.8104L18.75 1.80896Z" fill="#3B3B3B"/>
<path d="M12.7617 3.9137C11.0349 2.33969 8.58227 1.5498 5.3979 1.5498H0V4.35477H5.29113C9.98154 4.35477 12.326 6.42174 12.326 10.5557C12.326 12.5722 11.7538 14.1102 10.6136 15.1667C9.47339 16.1988 7.80785 16.7162 5.61996 16.7162H0V19.5933H5.18152C8.55945 19.5933 11.0976 18.7933 12.7987 17.1934C14.4997 15.5934 15.351 13.3563 15.351 10.4764C15.351 7.5965 14.4898 5.456 12.763 3.9065V3.91226L12.7617 3.9137Z" fill="#3B3B3B"/>
</g>
<defs>
<clipPath id="clip0_2034_3532">
<rect width="119" height="20" fill="white"/>
</clipPath>
</defs>
</svg>
